<svg version="1.1" xmlns="http://www.w3.org/2000/svg" xmlns:xlink="http://www.w3.org/1999/xlink" width="135.4715" height="135.4715" viewBox="0,0,135.4715,135.4715"><g transform="translate(-172.26425,-112.26425)"><g data-paper-data="{&quot;isPaintingLayer&quot;:true}" fill-rule="nonzero" stroke="none" stroke-linecap="butt" stroke-linejoin="miter" stroke-miterlimit="10" stroke-dasharray="" stroke-dashoffset="0" style="mix-blend-mode: normal"><path d="M292.99075,192.78025c-1.2842,4.9606 -2.7544,9.6444 -5.3007,13.9508l0.021,0.0278l6.9549,14.63l-11.4864,11.5132l-14.6159,-6.9063l-0.0228,0.0796c-4.306,2.5462 -8.9865,4.7228 -13.9476,6.0075l-5.4166,15.6529h-16.247l-5.4194,-15.6533c-4.961,-1.2847 -9.6471,-3.6618 -13.954,-6.2062l-0.0295,0.0209l-14.6328,6.9545l-11.521,-11.4896l6.8859,-14.6142l-0.1132,-0.0204c-2.5485,-4.3069 -4.8001,-8.9875 -6.0826,-13.9495l-15.7988,-5.4157v-16.2479l15.7984,-5.4125c1.2824,-4.9602 3.8073,-9.6394 6.3553,-13.9449l-0.0227,-0.0178l-6.955,-14.6036l11.4874,-11.4646l14.615,7.0004l0.0218,0.1127c4.306,-2.548 8.9884,-4.3451 13.9495,-5.6275l5.4157,-14.8923h16.247l5.412,14.8914c4.9611,1.2829 9.6371,2.899 13.9431,5.4452l0.0141,-0.0204l14.601,-6.955l11.4559,11.4874l-7.0181,14.6168l-0.1478,0.0191c2.5463,4.306 4.2692,8.9902 5.5535,13.9504l14.7454,5.4152v16.2479zM268.13265,179.23895c0,-14.9546 -12.122,-27.0797 -27.0788,-27.0797c-14.9551,0 -27.0789,12.1251 -27.0789,27.0797c0,14.9578 12.1238,27.0784 27.0789,27.0784c14.9568,0 27.0788,-12.1206 27.0788,-27.0784z" fill="#666666" stroke-width="0.4546"/><path d="M241.05385,206.36735c-14.9551,0 -27.1289,-12.1706 -27.1289,-27.1284c0,-14.9546 12.1738,-27.1297 27.1289,-27.1297c14.9568,0 27.1288,12.1751 27.1288,27.1297c0,14.9578 -12.172,27.1284 -27.1288,27.1284z" data-paper-data="{&quot;noHover&quot;:false,&quot;origItem&quot;:[&quot;Path&quot;,{&quot;applyMatrix&quot;:true,&quot;segments&quot;:[[[268.13265,179.23895],[0,14.9578],[0,-14.9546]],[[241.05385,152.15925],[14.9568,0],[-14.9551,0]],[[213.97495,179.23895],[0,-14.9546],[0,14.9578]],[[241.05385,206.31735],[-14.9551,0],[14.9568,0]]],&quot;closed&quot;:true,&quot;fillColor&quot;:[0.4,0.4,0.4],&quot;strokeWidth&quot;:0.4546}]}" fill-opacity="0.03137" fill="#f0f0f0" stroke-width="0.2273"/></g></g></svg>