<svg xmlns="http://www.w3.org/2000/svg" xmlns:xlink="http://www.w3.org/1999/xlink" version="1.1" width="459.54545402526855" height="366.54545402526855" viewBox="-4.772727012634277 -4.772727012634277 459.54545402526855 366.54545402526855">
  <!-- Exported by Scratch - http://scratch.mit.edu/ -->
  <path id="ID0.28591495333239436" fill="#E5E5E5" stroke="none" d="M 448 0 L 450 0 L 450 2 L 448 2 L 448 0 Z " stroke-width="1"/>
  <path id="ID0.28591495333239436" fill="#E5E5E5" stroke="none" d="M 0 355 L 2 355 L 2 357 L 0 357 L 0 355 Z " stroke-width="1"/>
  <g id="ID0.4858792331069708">
    <g id="ID0.2133020511828363">
      <path id="ID0.4005711004137993" fill="#666666" d="M 305.7995 97.1677 L 295.1945 113.0514 C 314.5814 128.8014 327 152.8177 327 179.7454 C 327 206.6827 314.5814 230.6991 295.1945 246.4491 L 305.7995 262.3232 C 330.2932 243.1177 346.0909 213.3073 346.0909 179.7454 C 346.0909 146.1932 330.3027 116.3827 305.7995 97.1677 Z M 284.5227 129.0305 L 273.8127 145.0668 C 283.0527 153.7818 288.8945 166.0477 288.8945 179.755 C 288.8945 193.4623 283.0527 205.7377 273.8127 214.4527 L 284.5227 230.4891 C 298.8123 218.2136 307.9091 200.0582 307.9091 179.7454 C 307.9091 159.4423 298.8218 141.2868 284.5227 129.0305 Z M 231.5454 74.7455 C 220.3104 74.7455 216.9123 81.2745 216.9123 81.2745 C 216.9123 81.2745 187.6936 113.3759 167.5718 127.5414 C 163.8682 129.8991 159.8018 132.0182 152.6045 132.0182 L 136.0909 132.0182 C 125.5527 132.0182 117 140.5709 117 151.1091 L 117 208.3818 C 117 218.92 125.5527 227.4727 136.0909 227.4727 L 152.6045 227.4727 C 159.8018 227.4727 163.8682 229.5918 167.5623 231.9495 C 187.6841 246.115 216.9027 278.2259 216.9027 278.2259 C 216.9027 278.2259 220.3104 284.7454 231.5454 284.7454 C 242.0836 284.7454 250.6364 276.2023 250.6364 265.6545 L 250.6364 93.8364 C 250.6364 83.2886 242.0836 74.7455 231.5454 74.7455 Z " stroke-width="9.545454025268555"/>
    </g>
  </g>
</svg>