<svg version="1.1" xmlns="http://www.w3.org/2000/svg" xmlns:xlink="http://www.w3.org/1999/xlink" width="167.66344" height="61.00001" viewBox="0,0,167.66344,61.00001"><g transform="translate(-156.12338,-149.49999)"><g data-paper-data="{&quot;isPaintingLayer&quot;:true}" fill-rule="nonzero" stroke="none" stroke-linecap="butt" stroke-linejoin="miter" stroke-miterlimit="10" stroke-dasharray="" stroke-dashoffset="0" style="mix-blend-mode: normal"><path d="M170.5,196.7026v-33.4052h139v33.4052z" fill="#35ff00" stroke-width="0"/><text transform="translate(175.53507,185.57064) scale(1.16055,1.16055)" font-size="16" xml:space="preserve" fill="#000000" fill-rule="nonzero" stroke="none" stroke-width="1" stroke-linecap="butt" stroke-linejoin="miter" stroke-miterlimit="10" stroke-dasharray="" stroke-dashoffset="0" font-family="Arial Black" font-weight="500" text-anchor="start" style="mix-blend-mode: normal"><tspan x="0" dy="0">JOIN GAME?</tspan></text><path d="M156.12338,163.83333c0,-7.91608 6.41725,-14.33333 14.33333,-14.33333c7.81319,0 14.16625,6.25151 14.33009,14.02542c-0.27453,-0.01686 -0.55131,-0.02542 -0.83009,-0.02542c-7.36379,0 -13.33333,5.96954 -13.33333,13.33333c0,0.44937 0.02223,0.89355 0.06565,1.33149c-0.07729,0.00123 -0.15473,0.00185 -0.23232,0.00185c-7.91608,0 -14.33333,-6.41725 -14.33333,-14.33333z" fill="#efefef" stroke-width="0"/><path d="M309.45347,178.16666c-0.07758,0 -0.15503,-0.00062 -0.23232,-0.00185c0.04342,-0.43794 0.06565,-0.88212 0.06565,-1.33148c0,-7.3638 -5.96954,-13.33334 -13.33334,-13.33334c-0.27878,0 -0.55555,0.00856 -0.83009,0.02542c0.16384,-7.77391 6.5169,-14.02542 14.33009,-14.02542c7.91608,0 14.33333,6.41726 14.33333,14.33334c0,7.91608 -6.41726,14.33333 -14.33333,14.33333z" data-paper-data="{&quot;index&quot;:null}" fill="#efefef" stroke-width="0"/><path d="M170.45672,181.83333c0.07758,0 0.15502,0.00062 0.23232,0.00185c-0.04342,0.43794 -0.06565,0.88212 -0.06565,1.33148c0,7.3638 5.96954,13.33334 13.33334,13.33334c0.27878,0 0.55555,-0.00856 0.83009,-0.02542c-0.16384,7.77391 -6.5169,14.02542 -14.33009,14.02542c-7.91608,0 -14.33334,-6.41726 -14.33334,-14.33334c0,-7.91608 6.41726,-14.33333 14.33334,-14.33333z" data-paper-data="{&quot;index&quot;:null}" fill="#efefef" stroke-width="0"/><path d="M323.78681,196.16666c0,7.91608 -6.41726,14.33334 -14.33334,14.33334c-7.81318,0 -14.16625,-6.25151 -14.33009,-14.02542c0.27454,0.01686 0.55131,0.02542 0.83009,0.02542c7.36379,0 13.33334,-5.96954 13.33334,-13.33334c0,-0.44937 -0.02223,-0.89354 -0.06565,-1.33148c0.07729,-0.00123 0.15473,-0.00185 0.23232,-0.00185c7.91608,0 14.33334,6.41725 14.33334,14.33333z" data-paper-data="{&quot;index&quot;:null}" fill="#efefef" stroke-width="0"/></g></g></svg>