<svg version="1.1" xmlns="http://www.w3.org/2000/svg" xmlns:xlink="http://www.w3.org/1999/xlink" width="44.05481" height="30.38759" viewBox="0,0,44.05481,30.38759"><g transform="translate(-216.00679,-168.8719)"><g data-paper-data="{&quot;isPaintingLayer&quot;:true}" fill="#000000" fill-rule="nonzero" stroke="none" stroke-width="0.5" stroke-linecap="butt" stroke-linejoin="miter" stroke-miterlimit="10" stroke-dasharray="" stroke-dashoffset="0" style="mix-blend-mode: normal"><path d="M223.55638,171.83412c0,-1.38071 1.11929,-2.5 2.5,-2.5c1.38071,0 2.5,1.11929 2.5,2.5c0,1.38071 -1.11929,2.5 -2.5,2.5c-1.38071,0 -2.5,-1.11929 -2.5,-2.5z"/><path d="M251.90584,171.3719c0,-1.38071 1.11929,-2.5 2.5,-2.5c1.38071,0 2.5,1.11929 2.5,2.5c0,1.38071 -1.11929,2.5 -2.5,2.5c-1.38071,0 -2.5,-1.11929 -2.5,-2.5z"/><path d="M224.51048,184.96458c3.68986,3.4357 7.56625,6.73534 12.24669,8.76104c4.96403,2.14843 10.99637,-1.22596 15.54513,-3.37419c0.97215,-0.45911 4.39478,-2.92365 5.68725,-2.36973c2.49661,1.06997 2.79454,3.41605 0.5803,4.81647c-3.52938,2.2322 -7.77747,3.69681 -11.65324,5.21516c-8.46658,3.31681 -15.12489,-0.44386 -21.94658,-5.91295c-2.32848,-1.86679 -4.31651,-4.12387 -6.70768,-5.92045c-0.63535,-0.47737 -2.40277,-1.64162 -2.17637,-2.47176c-0.0517,-0.20027 -0.0792,-0.41027 -0.0792,-0.6267c0,-1.38071 1.11929,-2.5 2.5,-2.5c0.15463,-0.11972 0.45156,-0.05066 0.83396,0.14248c0.34431,0.1218 0.65399,0.31689 0.91027,0.56653c1.75061,1.23739 4.12308,3.54712 4.25946,3.67411z"/></g></g></svg>