<svg xmlns="http://www.w3.org/2000/svg" xmlns:xlink="http://www.w3.org/1999/xlink" version="1.1" width="451" height="358" viewBox="-0.5 -0.5 451 358">
  <!-- Exported by Scratch - http://scratch.mit.edu/ -->
  <g id="ID0.6284333788789809">
    <g id="layer1">
      <path id="rect4205" fill="#666666" stroke="#666666" stroke-width="0.41910088" d="M 229.164 83.968 C 220.819 83.942 212.52 85.414 209.898 88.4 C 208.553 89.932 208.454 90.2 208.595 91.941 C 208.719 93.482 209.963 95.301 214.141 100.052 C 218.123 104.581 218.814 105.627 219.213 107.728 C 219.399 108.705 219.239 109.344 218.607 110.146 C 216.806 112.436 213.244 113.55 206.508 113.929 C 189.752 114.872 173.334 117.239 164.326 120.012 C 161.467 120.892 155.796 123.625 155.796 124.122 C 155.796 124.297 155.127 124.801 154.308 125.242 C 151.843 126.57 150.033 128.998 147.135 134.869 L 144.378 140.455 L 123.999 140.675 C 103.435 140.898 97.004 141.296 88.95 142.843 C 76.296 145.273 69.871 149.55 66.884 157.531 C 66.083 159.672 65.948 160.824 65.978 165.284 C 66.031 173.182 67.469 178.675 71.563 186.615 C 77.482 198.097 88.574 208.744 104.894 218.611 C 109.41 221.341 116.441 225.025 120.04 226.547 C 122.471 227.575 122.714 227.809 123.97 230.306 C 127.384 237.096 133.428 243.711 143.014 251.151 C 147.168 254.375 148.197 255.398 148.929 257.034 C 151.79 263.423 165.252 267.901 190.001 270.695 C 205.321 272.425 232.149 273.082 249.254 272.147 C 260.887 271.51 272.974 270.254 281.736 268.77 C 297.756 266.057 308.259 261.517 309.602 256.725 C 309.963 255.439 310.821 254.586 314.739 251.619 C 320.453 247.291 328.834 239.058 331.589 235.064 C 333.83 231.818 334.777 229.879 336.39 225.23 L 337.477 222.099 L 342.543 219.948 C 347.103 218.012 348.101 217.381 352.508 213.648 C 356.445 210.312 358.011 208.637 360.496 205.099 C 365.563 197.885 367.65 192.275 372.239 173.538 C 376.463 156.293 379.281 149.971 385.587 143.596 C 389.056 140.088 394.172 136.741 401.019 133.499 C 404.238 131.974 405.227 131.062 404.296 130.473 C 403.514 129.978 395.81 129.991 385.045 130.505 C 375.745 130.95 372.761 131.39 370.166 132.7 C 366.088 134.759 360.65 140.761 357.914 146.224 C 357.224 147.602 355.68 151.37 354.482 154.597 C 349.337 168.463 347.435 172.039 342.845 176.48 C 340.109 179.126 335.633 181.845 333.288 182.285 C 332.013 182.524 331.982 182.488 331.012 179.669 C 327.547 169.598 321.227 155.25 311.564 135.51 C 307.658 127.532 306.115 125.846 299.548 122.39 C 292.116 118.479 275.812 115.505 254.285 114.135 C 246.08 113.613 242.558 112.766 240.467 110.813 C 238.041 108.546 238.903 106.017 244.042 100.324 C 248.217 95.697 249.595 93.661 249.893 91.675 C 250.109 90.245 249.97 89.876 248.702 88.519 C 245.898 85.517 237.508 83.994 229.164 83.968 Z M 130.428 153.158 C 134.882 153.144 138.194 153.186 138.194 153.305 C 138.194 153.414 137.517 154.975 136.689 156.775 C 127.2 177.394 121.632 195.252 120.742 207.917 C 120.591 210.055 120.354 211.801 120.215 211.797 C 120.076 211.792 118.361 210.931 116.402 209.879 C 108.536 205.656 100.426 198.649 94.864 191.268 C 88.627 182.993 84.56 172.93 84.507 165.642 C 84.487 162.882 84.637 162.195 85.583 160.696 C 88.211 156.533 94.99 154.449 108.697 153.59 C 112.413 153.357 123.006 153.18 130.428 153.158 Z "/>
    </g>
  </g>
  <path id="ID0.28591495333239436" fill="#E5E5E5" stroke="none" d="M 448 0 L 450 0 L 450 2 L 448 2 L 448 0 Z " stroke-width="1"/>
  <path id="ID0.28591495333239436" fill="#E5E5E5" stroke="none" d="M 0 355 L 2 355 L 2 357 L 0 357 L 0 355 Z " stroke-width="1"/>
</svg>