<svg version="1.1" xmlns="http://www.w3.org/2000/svg" xmlns:xlink="http://www.w3.org/1999/xlink" width="174" height="174" viewBox="0,0,174,174"><g transform="translate(-153,-93)"><g data-paper-data="{&quot;isPaintingLayer&quot;:true}" fill-rule="nonzero" stroke="none" stroke-linecap="butt" stroke-linejoin="miter" stroke-miterlimit="10" stroke-dasharray="" stroke-dashoffset="0" style="mix-blend-mode: normal"><g fill="#666666" stroke-width="0.28848"><path d="M212.66474,208.1457c7.5511,7.4284 9.5344,17.5182 2.4954,24.4346c-16.6022,16.321 -50.1096,18.5711 -43.5611,11.2004c14.5108,-16.3354 5.2865,-27.3555 16.2056,-38.0871c7.039,-6.9164 17.3091,-4.9692 24.8601,2.4521z"/><path d="M245.36444,197.2771c-9.1594,9.0079 -14.0708,12.0153 -17.749,14.7775c-1.5939,1.2045 -2.0915,-0.3822 -2.4665,-1.0962c-1.8752,-3.57 -3.6277,-6.0654 -6.9164,-9.2892c-3.2887,-3.231 -5.8274,-4.9475 -9.4551,-6.7938c-0.7212,-0.375 -2.3367,-0.8582 -1.1179,-2.4305c2.8128,-3.6132 5.8707,-8.4453 15.0373,-17.4532c18.4701,-18.1529 80.5086,-67.8659 86.1124,-62.363c5.5894,5.51 -44.9746,66.4955 -63.4448,84.6484z"/></g><path d="M153,267v-174h174v174z" fill="none" stroke-width="0"/></g></g></svg>