<svg version="1.1" xmlns="http://www.w3.org/2000/svg" xmlns:xlink="http://www.w3.org/1999/xlink" width="124.87846" height="124.87846" viewBox="0,0,124.87846,124.87846"><g transform="translate(-177.56077,-117.56077)"><g data-paper-data="{&quot;isPaintingLayer&quot;:true}" fill-rule="nonzero" stroke="none" stroke-width="0" stroke-linecap="butt" stroke-linejoin="miter" stroke-miterlimit="10" stroke-dasharray="" stroke-dashoffset="0" style="mix-blend-mode: normal"><path d="M177.56077,180c0,-34.48424 27.95499,-62.43923 62.43923,-62.43923c34.48424,0 62.43923,27.95499 62.43923,62.43923c0,34.48424 -27.95499,62.43923 -62.43923,62.43923c-34.48424,0 -62.43923,-27.95499 -62.43923,-62.43923z" fill="#ff0000"/><path d="M187.59923,180c0,-28.94015 23.46061,-52.40077 52.40077,-52.40077c28.94015,0 52.40077,23.46061 52.40077,52.40077c0,28.94015 -23.46061,52.40077 -52.40077,52.40077c-28.94015,0 -52.40077,-23.46061 -52.40077,-52.40077z" fill="#ffffff"/><path d="M198.44077,180c0,-22.95253 18.6067,-41.55923 41.55923,-41.55923c22.95253,0 41.55923,18.6067 41.55923,41.55923c0,22.95253 -18.6067,41.55923 -41.55923,41.55923c-22.95253,0 -41.55923,-18.6067 -41.55923,-41.55923z" fill="#ff0000"/><path d="M208.47923,180c0,-17.40845 14.11232,-31.52077 31.52077,-31.52077c17.40845,0 31.52077,14.11232 31.52077,31.52077c0,17.40845 -14.11232,31.52077 -31.52077,31.52077c-17.40845,0 -31.52077,-14.11232 -31.52077,-31.52077z" fill="#ffffff"/><path d="M217.71462,180c0,-12.30788 9.97751,-22.28538 22.28538,-22.28538c12.30788,0 22.28538,9.97751 22.28538,22.28538c0,12.30788 -9.97751,22.28538 -22.28538,22.28538c-12.30788,0 -22.28538,-9.97751 -22.28538,-22.28538z" fill="#ff0000"/><path d="M226.14692,180c0,-7.65085 6.20223,-13.85308 13.85308,-13.85308c7.65085,0 13.85308,6.20223 13.85308,13.85308c0,7.65085 -6.20223,13.85308 -13.85308,13.85308c-7.65085,0 -13.85308,-6.20223 -13.85308,-13.85308z" fill="#ffffff"/><path d="M234.78,180c0,-2.88293 2.33707,-5.22 5.22,-5.22c2.88293,0 5.22,2.33707 5.22,5.22c0,2.88293 -2.33707,5.22 -5.22,5.22c-2.88293,0 -5.22,-2.33707 -5.22,-5.22z" fill="#ff0000"/></g></g></svg>