<svg version="1.1" xmlns="http://www.w3.org/2000/svg" xmlns:xlink="http://www.w3.org/1999/xlink" width="180" height="177.5" viewBox="0,0,180,177.5"><g transform="translate(-149.75,-90.5)"><g data-paper-data="{&quot;isPaintingLayer&quot;:true}" fill-rule="nonzero" stroke-linejoin="miter" stroke-miterlimit="10" stroke-dasharray="" stroke-dashoffset="0" style="mix-blend-mode: normal"><path d="M240,112.35v18.5" fill="none" stroke="#666666" stroke-width="8" stroke-linecap="round"/><path d="M240,228.95v18.5" fill="none" stroke="#666666" stroke-width="8" stroke-linecap="round"/><path d="M307.55,180h-18.5" fill="none" stroke="#666666" stroke-width="8" stroke-linecap="round"/><path d="M190.95,180h-18.5" fill="none" stroke="#666666" stroke-width="8" stroke-linecap="round"/><path d="M274.68359,145.31641l13.08148,-13.08147" fill="none" stroke="#666666" stroke-width="8" stroke-linecap="round"/><path d="M205.31641,214.68359l-13.08147,13.08147" fill="none" stroke="#666666" stroke-width="8" stroke-linecap="round"/><path d="M287.76507,227.76507l-13.08148,-13.08147" fill="none" stroke="#666666" stroke-width="8" stroke-linecap="round"/><path d="M205.31641,145.31641l-13.08147,-13.08147" fill="none" stroke="#666666" stroke-width="8" stroke-linecap="round"/><path d="M208.875,180c0,-17.18986 13.93514,-31.125 31.125,-31.125c17.18986,0 31.125,13.93514 31.125,31.125c0,17.18986 -13.93514,31.125 -31.125,31.125c-17.18986,0 -31.125,-13.93514 -31.125,-31.125z" fill="#666666" stroke="#666666" stroke-width="8" stroke-linecap="butt"/><path d="M149.75,93c0,-1.38071 1.11929,-2.5 2.5,-2.5c1.38071,0 2.5,1.11929 2.5,2.5c0,1.38071 -1.11929,2.5 -2.5,2.5c-1.38071,0 -2.5,-1.11929 -2.5,-2.5z" fill="none" stroke="none" stroke-width="0.5" stroke-linecap="butt"/><path d="M324.75,265.5c0,-1.38071 1.11929,-2.5 2.5,-2.5c1.38071,0 2.5,1.11929 2.5,2.5c0,1.38071 -1.11929,2.5 -2.5,2.5c-1.38071,0 -2.5,-1.11929 -2.5,-2.5z" fill="none" stroke="none" stroke-width="0.5" stroke-linecap="butt"/></g></g></svg>