<svg version="1.1" xmlns="http://www.w3.org/2000/svg" xmlns:xlink="http://www.w3.org/1999/xlink" width="45.627" height="28" viewBox="0,0,45.627,28"><g transform="translate(-210.40551,-164.01875)"><g data-paper-data="{&quot;isPaintingLayer&quot;:true}" fill-rule="nonzero" stroke="none" stroke-linecap="butt" stroke-linejoin="miter" stroke-miterlimit="10" stroke-dasharray="" stroke-dashoffset="0" style="mix-blend-mode: normal"><text transform="translate(224.72001,185.76875) scale(0.5,0.5)" font-size="40" xml:space="preserve" fill="#0061ff" fill-rule="nonzero" stroke="none" stroke-width="1" stroke-linecap="butt" stroke-linejoin="miter" stroke-miterlimit="10" stroke-dasharray="" stroke-dashoffset="0" font-family="Sans Serif" font-weight="normal" text-anchor="start" style="mix-blend-mode: normal"><tspan x="0" dy="0">5/5</tspan></text><path d="M219.12756,174.3761c0,1.87751 -1.52203,3.39954 -3.39954,3.39954c-1.87751,0 -3.39953,-1.52203 -3.39953,-3.39954c0,-1.87751 1.52202,-3.39954 3.39953,-3.39954c1.87751,0 3.39954,1.52203 3.39954,3.39954z" fill="#505050" stroke-width="0"/><path d="M220.84449,183.1797c0,2.65744 -1.92907,3.34374 -4.81172,3.34374c-2.88264,0 -5.62726,-0.6863 -5.62726,-3.34374c0,-2.65744 2.33685,-4.81172 5.21949,-4.81172c2.88264,0 5.21949,2.15428 5.21949,4.81172z" fill="#505050" stroke-width="0"/></g></g></svg>