<svg version="1.1" xmlns="http://www.w3.org/2000/svg" xmlns:xlink="http://www.w3.org/1999/xlink" width="215.25" height="114.5" viewBox="0,0,215.25,114.5"><defs><radialGradient cx="240" cy="180" r="51.5" gradientUnits="userSpaceOnUse" id="color-1"><stop offset="0" stop-color="#ffffff" stop-opacity="0.14902"/><stop offset="1" stop-color="#1a1a1a" stop-opacity="0.14902"/></radialGradient><radialGradient cx="39.375" cy="59.75" r="0.00125" gradientUnits="userSpaceOnUse" id="color-2"><stop offset="0" stop-color="#ffffff"/><stop offset="1" stop-color="#1a1a1a"/></radialGradient></defs><g transform="translate(-78.75,-119.5)"><g data-paper-data="{&quot;isPaintingLayer&quot;:true}" fill-rule="nonzero" stroke-linecap="butt" stroke-linejoin="miter" stroke-miterlimit="10" stroke-dasharray="" stroke-dashoffset="0" style="mix-blend-mode: normal"><path d="M188.5,180c0,-28.44267 23.05733,-51.5 51.5,-51.5c28.44267,0 51.5,23.05733 51.5,51.5c0,28.44267 -23.05733,51.5 -51.5,51.5c-28.44267,0 -51.5,-23.05733 -51.5,-51.5z" fill="url(#color-1)" stroke="#565656" stroke-width="5"/><path d="M78.75,119.5v0v0z" fill="url(#color-2)" stroke="none" stroke-width="0"/><g fill="#565656" stroke="none" stroke-width="0"><path d="M264.53168,164.74039c-2.45281,-3.81796 -1.34615,-8.90141 2.47181,-11.35422c3.81796,-2.45281 8.9014,-1.34615 11.35421,2.47181c2.45281,3.81796 1.34615,8.9014 -2.47181,11.35422c-3.81796,2.45281 -8.9014,1.34615 -11.35422,-2.47181z"/><g><path d="M253.8719,181.381l-8.92106,-13.88621l21.69452,-13.93744l8.92106,13.88621z"/><path d="M246.99328,185.8001l-8.92106,-13.88621l3.26506,-2.09761l8.92106,13.88621z"/><path d="M248.87945,182.9093l-7.2123,-11.2264l4.86694,-3.12671l7.2123,11.22639z"/></g></g><path d="M231.81272,194.50123l-1.5031,-5.59065l-10.74769,12.57309l0.22346,-5.95952l-12.20008,6.27389l-6.50908,1.30526l2.25104,-5.51619l3.72403,1.80494l13.56905,-16.47055l-3.62626,8.05892l16.35406,-10.7715l2.11159,-5.22264l8.10665,11.73162z" fill="#565656" stroke="none" stroke-width="0"/></g></g></svg>