<svg xmlns="http://www.w3.org/2000/svg" xmlns:xlink="http://www.w3.org/1999/xlink" version="1.1" width="280.29998779296875" height="245.3000030517578" viewBox="0 0 280.29998779296875 245.3000030517578">
  <!-- Exported by Scratch - http://scratch.mit.edu/ -->
  <path id="ID0.8928994587622583" fill="none" stroke="#E5E5E5" stroke-width="2" stroke-linecap="round" d="M 279 1 L 279.3 1.3 "/>
  <path id="ID0.980098600499332" fill="none" stroke="#E5E5E5" stroke-width="2" stroke-linecap="round" d="M 1 244 L 1.3 244.3 "/>
  <g id="ID0.19288221560418606">
    <path id="ID0.21538964100182056" fill="#666666" d="M 179.9016 164.6436 L 179.9016 148.3957 L 165.1562 142.9805 C 163.8719 138.0203 162.149 133.3361 159.6027 129.0301 L 159.7505 129.011 L 166.7686 114.3942 L 155.3127 102.9068 L 140.7117 109.8618 L 140.6976 109.8822 C 136.3916 107.336 131.7156 105.7199 126.7545 104.437 L 121.3425 89.5456 L 105.0955 89.5456 L 99.6798 104.4379 C 94.7187 105.7203 90.0363 107.5174 85.7303 110.0654 L 85.7085 109.9527 L 71.0935 102.9523 L 59.6061 114.4169 L 66.5611 129.0205 L 66.5838 129.0383 C 64.0358 133.3438 61.5109 138.023 60.2285 142.9832 L 44.4301 148.3957 L 44.4301 164.6436 L 60.2289 170.0593 C 61.5114 175.0213 63.763 179.7019 66.3115 184.0088 L 66.4247 184.0292 L 59.5388 198.6434 L 71.0598 210.133 L 85.6926 203.1785 L 85.7221 203.1576 C 90.029 205.702 94.7151 208.0791 99.6761 209.3638 L 105.0955 225.0171 L 121.3425 225.0171 L 126.7591 209.3642 C 131.7202 208.0795 136.4007 205.9029 140.7067 203.3567 L 140.7295 203.2771 L 155.3454 210.1834 L 166.8318 198.6702 L 159.8769 184.0402 L 159.8559 184.0124 C 162.4022 179.706 163.8724 175.0222 165.1566 170.0616 L 179.9016 164.6436 Z M 113.2197 183.5987 C 98.2646 183.5987 86.1408 171.4781 86.1408 156.5203 C 86.1408 141.5657 98.2646 129.4406 113.2197 129.4406 C 128.1765 129.4406 140.2985 141.5657 140.2985 156.5203 C 140.2985 171.4781 128.1765 183.5987 113.2197 183.5987 Z " stroke-width="0.4546024203300476"/>
    <path id="ID0.7807562812231481" fill="#666666" d="M 231.8345 66.47 L 228.2818 57.8934 L 219.0852 58.3535 C 217.3245 56.0141 215.2733 53.9693 212.9858 52.2527 L 213.0031 52.2332 L 213.4849 42.9966 L 204.9116 39.4407 L 198.7154 46.3084 L 198.7117 46.3224 C 195.88 45.921 192.9751 45.8983 190.0797 46.3111 L 183.884 39.4366 L 175.307 42.9893 L 175.7866 52.2268 C 173.4445 53.9875 171.4101 56.0555 169.6935 58.3458 L 169.6763 58.3362 L 160.4401 57.8612 L 156.8947 66.4318 L 163.7605 72.6217 L 163.7778 72.6312 C 163.4455 75.2838 163.3073 78.3856 163.7173 81.2859 L 156.8037 87.4967 L 160.3551 96.075 L 169.6354 95.5813 C 171.3938 97.9198 173.4867 99.9514 175.7702 101.6662 L 175.7761 101.6776 L 175.3079 110.9115 L 184.7036 114.4642 L 191.7213 107.5947 L 191.7213 107.5797 C 193.5397 107.912 196.6392 108.0047 199.5373 107.5979 L 205.3239 114.4687 L 213.6977 110.9169 L 213.1131 101.6776 C 215.4516 99.916 217.4413 97.848 219.1579 95.5604 L 219.1475 95.5654 L 228.37 96.0414 L 231.9168 87.4658 L 225.0428 81.2723 L 225.0278 81.2636 C 225.4264 78.4351 225.4151 75.5447 225.005 72.6476 L 231.8345 66.47 Z M 200.3187 91.2463 C 192.4273 94.5149 183.3757 90.7676 180.1062 82.872 C 176.8349 74.9783 180.5822 65.9281 188.4777 62.6581 C 196.3746 59.3886 205.4226 63.1368 208.6943 71.0305 C 211.9616 78.9274 208.2125 87.9758 200.3187 91.2463 Z " stroke-width="0.4546024203300476"/>
  </g>
</svg>