<svg version="1.1" xmlns="http://www.w3.org/2000/svg" xmlns:xlink="http://www.w3.org/1999/xlink" width="295.19314" height="160.95079" viewBox="0,0,295.19314,160.95079"><g transform="translate(-92.46343,-99.52461)"><g data-paper-data="{&quot;isPaintingLayer&quot;:true}" fill-rule="nonzero" stroke="none" stroke-linecap="butt" stroke-linejoin="miter" stroke-miterlimit="10" stroke-dasharray="" stroke-dashoffset="0" style="mix-blend-mode: normal"><path d="M130.44368,224.07045v-88.14087h218.91606v88.14087z" fill="#ff0000" stroke-width="0"/><text transform="translate(151.42215,194.69835) scale(3.06216,3.06216)" font-size="16" xml:space="preserve" fill="#000000" fill-rule="nonzero" stroke="none" stroke-width="1" stroke-linecap="butt" stroke-linejoin="miter" stroke-miterlimit="10" stroke-dasharray="" stroke-dashoffset="0" font-family="Arial Black" font-weight="500" text-anchor="start" style="mix-blend-mode: normal"><tspan x="0" dy="0">LEAVE</tspan></text><path d="M92.46343,137.34365c0,-20.88688 16.93216,-37.81902 37.81902,-37.81902c20.61539,0 37.37818,16.49484 37.81048,37.00659c-0.72436,-0.04449 -1.45465,-0.06708 -2.19022,-0.06708c-19.42963,0 -35.18049,15.75086 -35.18049,35.18049c0,1.18568 0.05865,2.35766 0.17322,3.51318c-0.20394,0.00325 -0.40826,0.00488 -0.61298,0.00488c-20.88688,0 -37.81902,-16.93216 -37.81902,-37.81902z" fill="#efefef" stroke-width="0"/><path d="M349.83747,175.16267c-0.2047,0 -0.40906,-0.00164 -0.61298,-0.00488c0.11457,-1.15552 0.17322,-2.32751 0.17322,-3.51315c0,-19.42966 -15.75086,-35.18051 -35.18051,-35.18051c-0.73557,0 -1.46584,0.02259 -2.19022,0.06708c0.4323,-20.51175 17.19508,-37.00659 37.81048,-37.00659c20.88688,0 37.81902,16.93218 37.81902,37.81905c0,20.88688 -16.93218,37.81902 -37.81902,37.81902z" data-paper-data="{&quot;index&quot;:null}" fill="#efefef" stroke-width="0"/><path d="M130.28248,184.83732c0.2047,0 0.40903,0.00164 0.61298,0.00488c-0.11457,1.15552 -0.17322,2.32751 -0.17322,3.51315c0,19.42966 15.75086,35.18051 35.18051,35.18051c0.73557,0 1.46584,-0.02259 2.19022,-0.06708c-0.4323,20.51175 -17.19508,37.00659 -37.81048,37.00659c-20.88688,0 -37.81905,-16.93218 -37.81905,-37.81905c0,-20.88688 16.93218,-37.81902 37.81905,-37.81902z" data-paper-data="{&quot;index&quot;:null}" fill="#efefef" stroke-width="0"/><path d="M387.65656,222.65635c0,20.88688 -16.93218,37.81905 -37.81905,37.81905c-20.61537,0 -37.37818,-16.49484 -37.81048,-37.00659c0.72439,0.04449 1.45465,0.06708 2.19022,0.06708c19.42963,0 35.18051,-15.75086 35.18051,-35.18051c0,-1.18568 -0.05865,-2.35764 -0.17322,-3.51315c0.20394,-0.00325 0.40826,-0.00488 0.61298,-0.00488c20.88688,0 37.81905,16.93216 37.81905,37.81902z" data-paper-data="{&quot;index&quot;:null}" fill="#efefef" stroke-width="0"/></g></g></svg>